<svg xmlns="http://www.w3.org/2000/svg" viewBox="0 0 40 40"><path d="M3.592 6.93c-6.05 8.079 1.24 26.433 18.136 30.732 3.595.914 7.897-3.087 7.915-6.522.017-3.364-4.907-5.024-1.837-8.305s4.444 1.81 8.045 1.093c1.887-.376 3.854-3.44 1.784-6.713C25.94-1.275 8.773.013 3.592 6.931Zm21.94 23.565c.169 1.393-1.198 3.099-2.583 3.326-1.517.248-3.599-1.035-3.843-2.553-.242-1.512 1.318-3.432 2.84-3.612 1.364-.16 3.385 1.186 3.586 2.84z" fill="#fff" fill-opacity=".33" stroke="#fff" stroke-width="1.947"/><g fill="#fff" fill-opacity=".5" stroke="#fff" stroke-width=".727"><circle cx="13.016" cy="27.141" r="2.427"/><circle cx="8.916" cy="21.353" r="2.427"/><circle cx="7.103" cy="14.166" r="2.427"/><circle cx="11.948" cy="8.113" r="2.427"/><circle cx="19.084" cy="8.23" r="2.427"/><circle cx="25.47" cy="11.679" r="2.427"/></g></svg>