<svg xmlns="http://www.w3.org/2000/svg" viewBox="0 0 40 40"><path fill="#660" d="M0 0h40v40H0z"/><path fill="#111" d="M0 0h5v5H0zm10 0h5v5h-5zm10 0h5v5h-5zm10 0h5v5h-5zM0 10h5v5H0zm10 0h5v5h-5zm10 0h5v5h-5zm10 0h5v5h-5zM0 20h5v5H0zm10 0h5v5h-5zm10 0h5v5h-5zm10 0h5v5h-5zM0 30h5v5H0zm10 0h5v5h-5zm10 0h5v5h-5zm10 0h5v5h-5zM5 5h5v5H5zm10 0h5v5h-5zm10 0h5v5h-5zm10 0h5v5h-5zM5 15h5v5H5zm10 0h5v5h-5zm10 0h5v5h-5zm10 0h5v5h-5zM5 25h5v5H5zm10 0h5v5h-5zm10 0h5v5h-5zm10 0h5v5h-5zM5 35h5v5H5zm10 0h5v5h-5zm10 0h5v5h-5zm10 0h5v5h-5z"/></svg>